<svg width="147" height="143" viewBox="0 0 147 143" fill="none" xmlns="http://www.w3.org/2000/svg">
<path d="M134.156 90.2694C129.907 86.1982 125.94 88.5731 124.487 90.2694L119.08 89.029L122.038 70.4542L128.113 55.9506C131.014 51.2942 135.747 51.9324 137.751 52.8336C148.437 57.191 146.784 66.2876 146.179 67.7507C145.575 69.2138 144.875 76.1793 146.179 80.3459C147.222 83.6792 146.614 85.9968 146.179 86.7389C146.052 91.5098 139.468 95.3584 134.156 90.2694Z" fill="#E3AF8A"/>
<mask id="mask0_326_20" style="mask-type:alpha" maskUnits="userSpaceOnUse" x="119" y="52" width="28" height="41">
<path d="M134.157 90.2696C129.908 86.1985 125.94 88.5733 124.488 90.2696L119.081 89.0292L122.039 70.4544L128.114 55.9508C131.014 51.2944 135.747 51.9327 137.751 52.8338C148.438 57.1913 146.784 66.2878 146.18 67.7509C145.575 69.214 144.876 76.1795 146.18 80.3461C147.223 83.6794 146.614 85.997 146.18 86.7392C146.052 91.5101 139.468 95.3586 134.157 90.2696Z" fill="#E3AF8A"/>
</mask>
<g mask="url(#mask0_326_20)">
<path d="M137.528 64.4431C132.668 61.8222 128.676 63.9448 127.287 65.3336L126.714 65.938L127.032 61.0716L127.732 58.5271L129.354 56.6188L132.916 54.9648L138.737 56.0463L142.045 58.1455L142.967 61.6759C143.423 63.7221 142.388 67.0639 137.528 64.4431Z" fill="#B58061"/>
<path d="M139.151 82.4135C137.955 82.5153 136.956 84.1098 136.606 84.8944L137.974 86.4847H141.663L144.081 83.5585L145.067 79.8054L144.78 73.7304L144.081 70.2H143.285L142.14 70.5498C141.046 71.1096 140.836 75.0027 140.868 76.8792C140.794 78.6816 140.347 82.3117 139.151 82.4135Z" fill="#B58061"/>
<path d="M135.492 83.7178C132.821 80.7662 128.569 78.9469 126.778 78.4062H124.933L122.42 91.3194L126.301 92.3054L137.274 96.6311L147.611 94.3728L150.918 71.4406L147.611 52.6432L135.683 50.8621L128.622 53.4065L127.191 58.7818L127.923 59.3225C128.839 57.5159 131.389 55.9192 132.884 55.9192C141.383 55.9956 142.85 61.4005 142.522 64.0934C140.715 66.7397 142.129 70.4758 143.062 72.0131C141.841 74.3795 142.193 77.2611 142.522 78.4062C143.698 82.0002 142.235 84.5447 141.345 85.4353C140.454 86.3259 138.832 87.4073 135.492 83.7178Z" fill="#D89373"/>
</g>
<path d="M5.56443 84.1943C7.42191 92.5148 15.5197 95.7399 19.3365 96.3124L26.3656 93.7997L21.2448 70.2314L16.2512 65.206C15.1826 59.7354 9.44476 59.0887 6.70945 59.4491C-1.45836 62.1463 -0.489331 68.9698 1.01616 72.0444C1.7583 72.6275 3.70695 75.8738 5.56443 84.1943Z" fill="#E3AF8A"/>
<mask id="mask1_326_20" style="mask-type:alpha" maskUnits="userSpaceOnUse" x="0" y="59" width="27" height="38">
<path d="M5.56437 84.195C7.42185 92.5155 15.5197 95.7407 19.3364 96.3132L26.3655 93.8005L21.2447 70.2321L16.2512 65.2068C15.1825 59.7361 9.4447 59.0894 6.70939 59.4499C-1.45842 62.147 -0.489392 68.9705 1.0161 72.0451C1.75824 72.6282 3.70689 75.8745 5.56437 84.195Z" fill="#E3AF8A"/>
</mask>
<g mask="url(#mask1_326_20)">
<path d="M10.4624 59.736C11.1749 72.891 7.66351 81.502 5.81875 84.1631L4.80096 85.6262L1.97021 81.9048L4.26025 79.9965C5.24624 78.2365 7.25003 71.3643 7.37725 57.9548L10.4624 58.7818V59.736Z" fill="#B77F5B"/>
<path d="M6.64581 83.6543C12.9561 83.6543 18.3717 87.5983 20.2906 89.5703C21.8491 91.2348 25.0107 95.2508 25.1888 97.9989C25.3669 100.747 17.5447 100.162 13.6114 99.5256L2.35199 89.5703L3.36979 82.9546L6.64581 83.6543Z" fill="#D89373"/>
</g>
<path d="M28.5602 108.59L51.9377 123.189L71.6893 139.537L103.018 123.189L116.759 101.052L124.869 85.4032V75.6706L126.809 65.0473L127.35 59.5767L129.004 55.251L130.785 51.6251L125.473 37.4714L108.107 15.0163L59.2213 11.0405L30.4367 32.0008L14.2156 56.396L12.848 60.499C15.7996 62.7891 16.2936 64.6762 16.124 65.3336L18.3504 69.1821L21.8809 85.2124L23.3122 95.3267L28.5602 108.59Z" fill="#EEB795"/>
<path d="M82.6627 82.9858C81.3396 90.2376 85.5676 99.1752 87.8471 102.737L88.515 103.501H87.8471L81.5495 104.01L76.5878 103.501L74.0751 93.4819L82.6627 82.9858Z" fill="#DA956B"/>
<path d="M63.8332 81.6184C63.5787 91.1602 60.0165 99.3238 58.1399 102.197L57.2493 103.247L61.4159 103.914L66.2823 101.593L65.6461 92.9414L63.8332 81.6184Z" fill="#DA956B"/>
<path d="M92.7767 58.7816L91.5681 57.6048L95.0031 54.7104L99.3606 52.643L113.387 50.3848L122.007 51.7524L128.94 54.1379L127.318 56.1417L122.007 60.3083L114.119 64.2522L103.972 63.1708L92.7767 58.7816Z" fill="#EFD4B6"/>
<path d="M49.934 63.3298C51.7406 70.9633 46.0854 83.3359 41.6008 88.234L33.7447 80.9186L30.1506 73.8577V67.4964L34.3808 57.8592L37.8158 53.2155L39.5016 46.0273L39.9469 44.437L40.8692 45.0731C41.2403 45.2958 42.1669 46.4535 42.9048 49.3033C43.6427 52.1532 46.2233 56.5975 47.4213 58.4635C48.7953 59.2269 49.6689 62.0258 49.934 63.3298Z" fill="#EFD4B6"/>
<path d="M75.7605 17.3062V20.5186V22.4587H70.9896V17.3062H75.7605Z" fill="#8D634E"/>
<path d="M63.2926 16.0022L67.491 23.9219L65.3918 24.4944H62.4656C62.2875 22.4588 60.377 18.9602 59.444 17.4653L63.2926 16.0022Z" fill="#8D634E"/>
<path d="M82.0899 15.4297L79.3864 22.8087L80.8495 21.7886C82.02 20.2924 84.539 19.7596 85.6522 19.6803L86.0657 15.4297H82.0899Z" fill="#8D634E"/>
<path d="M112.019 61.8029C103.903 62.6171 102.297 56.9471 102.509 54.0104L106.453 48.9214H116.091L117.935 52.2292C119.345 55.0812 120.136 60.9886 112.019 61.8029Z" fill="#9B6945"/>
<path d="M45.6084 68.4189C45.6084 75.4162 37.4872 77.6533 33.4266 77.8971L30.7231 75.5116L29.5145 68.4189L32.5679 63.5207C36.9147 62.2379 45.6084 61.4215 45.6084 68.4189Z" fill="#9B6945"/>
<path d="M39.1199 73.9527C35.5831 76.37 32.8541 75.4264 31.9317 74.6524L31.2638 72.4896V69.4044L31.6773 67.3688C31.9572 66.4274 33.7871 65.7043 34.667 65.4605C40.0359 64.2137 41.9082 66.3828 42.1733 67.6233C42.6292 68.7259 42.6567 71.5354 39.1199 73.9527Z" fill="#382E25"/>
<path d="M110.938 60.117C104.679 60.6513 104.81 55.5263 105.658 52.897L106.485 51.6884L110.27 50.4797L115.614 51.6884C116.918 52.738 118.763 59.4491 110.938 60.117Z" fill="#382E25"/>
<path d="M55.1504 66.0969C55.9392 79.4046 46.0326 86.1666 41.601 88.234C51.9825 73.3996 50.4113 63.1389 48.5029 59.8311C47.2307 58.3998 45.0361 56.0462 43.4457 51.0526C42.1735 47.0578 40.6044 44.9989 39.9789 44.4688C44.0077 45.9318 54.3616 52.7892 55.1504 66.0969Z" fill="#EFA686"/>
<path d="M14.3111 58.7496C14.2856 59.8183 13.3251 60.3611 12.848 60.4989C12.848 59.619 12.5554 57.4965 11.3849 56.0461C10.2145 54.5957 10.4944 51.7099 10.7806 50.4482C9.12666 40.4738 15.4349 30.2831 18.7957 26.4346C25.6446 17.7515 46.6388 0.30906 75.8241 0.0037211C105.009 -0.301618 123.819 18.2604 129.576 27.5796C131.103 28.801 133.011 33.962 133.775 36.3899C136.65 46.4406 134.358 51.201 132.852 52.3248C131.962 52.3248 130.297 53.5334 129.576 54.1377L121.848 46.059C119.074 44.6595 116.812 40.6837 116.027 38.8708C114.734 35.6266 110.722 27.7196 105.022 22.0453C99.3224 16.3711 89.6703 16.14 85.5567 16.7337C73.8775 20.0925 64.4481 18.5785 61.1933 17.4017C60.6526 18.7375 54.9275 19.3418 47.5802 23.0631C41.7025 26.0402 40.2754 29.3502 40.2966 30.633C40.7292 37.5031 34.9426 41.4895 31.9952 42.6239C29.737 43.2282 27.5742 46.7269 23.7575 54.6784C19.9407 62.6299 17.5235 60.4989 16.6011 60.4989C15.6787 60.4989 14.3429 57.4137 14.3111 58.7496Z" fill="#492723"/>
<path d="M31.741 73.9213C32.7334 78.3741 38.8019 85.3291 41.6008 88.234C36.1196 87.036 25.367 81.8028 26.8428 69.8183C27.4047 67.2738 28.9929 61.4278 30.8504 58.3999C33.1722 54.615 39.1518 46.7589 39.947 44.437C40.2332 52.2295 34.8262 59.6403 33.9038 61.0716C32.9814 62.5029 30.5006 68.3552 31.741 73.9213Z" fill="#E2AB7D"/>
<path d="M113.451 62.948C102.509 63.3297 94.3034 59.5024 91.5681 57.541C94.1125 61.0269 103.654 64.2097 108.107 65.3653C115.486 66.7648 121.148 63.3827 123.056 61.5168C127.916 57.3438 128.961 54.8163 128.877 54.0741L126.968 53.6606C125.925 59.0041 117.522 62.0787 113.451 62.948Z" fill="#DD8A6E"/>
<path d="M109.284 46.4089C100.143 46.4089 93.6249 54.3393 91.4727 57.6683C92.3844 57.011 95.0922 55.5246 98.629 54.8376C102.166 54.1505 105.891 52.7914 107.312 52.1976C108.987 51.6463 113.813 50.9636 119.716 52.6429C122.187 53.12 127.477 54.0742 128.877 54.0742C126.131 51.095 118.031 46.4089 109.284 46.4089Z" fill="#E2AB7D"/>
<path d="M20.3222 89.9829C21.6963 83.9779 17.7565 70.7296 15.6149 64.8561C16.5479 65.0045 19.3362 67.1462 20.8629 74.7796C22.7713 84.3215 23.3438 88.2654 23.4074 89.9829C23.471 91.7005 24.5524 104.518 43 113.869C43.0954 110.455 47.65 103.074 65.1052 100.861L78.5274 101.878C81.6444 100.924 97.4202 104.677 100.855 106.331C104.29 107.985 103.845 113.392 104.1 112.152C104.303 111.159 105.732 110.805 106.421 110.752C106.854 109.836 112.03 103.797 114.564 100.892C120.442 95.4218 123.48 79.3809 124.265 72.0443C124.477 71.493 125.003 69.2517 125.41 64.6971C125.817 60.1424 128.336 55.7596 129.544 54.1375C127.483 57.5725 127.117 64.7289 127.191 67.8777L126.714 72.0443C127.273 73.342 126.48 79.7944 126.014 82.8584C123.877 96.8022 119.377 109.894 117.394 114.696C99.5322 140.625 78.7395 144.032 70.5759 142.495C65.7202 141.604 51.8612 136.757 35.2711 124.493C14.5335 109.162 18.6047 97.4892 20.3222 89.9829Z" fill="#492723"/>
<path d="M85.0795 115.142C83.2475 115.193 83.0015 111.983 83.1075 110.371C84.3692 109.534 87.1724 108.59 88.2919 111.516C89.6914 115.174 87.3695 115.078 85.0795 115.142Z" fill="#D9D9D9"/>
<path d="M59.571 115.969C57.052 116.071 57.0371 114.76 57.3446 114.092L58.7441 113.011L60.4616 112.439H62.5926C62.9107 114.665 62.7198 115.842 59.571 115.969Z" fill="#D9D9D9"/>
<path d="M75.5067 116.637C74.0532 116.637 74.2852 113.739 74.5829 112.289L75.5067 111.707L77.3822 110.339L81.3898 109.958L81.5729 110.339C82.1374 112.439 82.6753 116.586 80.3104 116.381C77.3542 116.126 77.3235 116.637 75.5067 116.637Z" fill="#D9D9D9"/>
<path d="M66.5048 117.05C64.3165 117.101 64.5328 113.7 64.9145 111.993L65.2325 111.262H69.6854L72.6736 112.08C72.6846 112.057 72.6962 112.062 72.707 112.089L72.6736 112.08C72.6201 112.189 72.5803 112.934 72.707 114.792C72.8978 117.591 69.2401 116.987 66.5048 117.05Z" fill="#D9D9D9"/>
<path fill-rule="evenodd" clip-rule="evenodd" d="M48.8981 114.83C51.8574 118 60.4741 123.857 73.3433 123.857C86.3306 123.857 93.6999 116.87 95.9024 113.183C95.9777 113.057 95.9696 112.904 95.8819 112.786C93.8199 110.017 87.5944 105.203 77.8887 106.595C77.7897 106.609 77.7001 106.662 77.6368 106.74C76.3123 108.356 72.5331 110.43 67.1223 106.715C67.0341 106.655 66.9264 106.63 66.822 106.654C62.3706 107.653 52.9398 110.499 48.9126 114.323C48.7678 114.46 48.7618 114.684 48.8981 114.83ZM55.791 114.998C58.2785 113.54 64.2146 111.143 70.365 111.99C70.3786 111.992 70.3914 111.995 70.4044 112C71.7591 112.494 75.0545 112.98 77.5845 111.023C77.5984 111.013 77.6128 111.004 77.6291 110.997C79.8089 110.12 85.6398 109.377 91.8782 113.267C91.9806 113.331 92 113.472 91.9131 113.556C90.4659 114.951 86.3529 117.826 80.0595 119.418C80.0156 119.429 79.9704 119.425 79.9297 119.406C77.0324 117.997 70.4528 116.075 66.6755 119.369C66.6286 119.41 66.5665 119.428 66.5059 119.413C64.903 119.03 60.7152 117.723 55.8078 115.325C55.6736 115.259 55.6621 115.073 55.791 114.998Z" fill="#C95659"/>
<path d="M54.4504 27.3052C58.8018 20.7294 63.3038 22.2289 65.0109 23.8006C70.5838 19.901 77.7451 20.4766 80.6291 21.2519C88.6958 16.4092 94.8689 21.4642 96.947 24.5971C99.8735 28.3884 102.959 40.8774 94.0206 50.5627C86.87 58.311 85.0823 64.2623 85.0823 66.2695C84.497 78.1213 82.1241 86.0968 81.0108 88.6031C76.1758 93.4457 77.427 101.517 78.6569 104.947C75.4251 110.937 69.7822 108.653 67.3648 106.763C65.9122 105.457 63.1405 99.2824 63.6749 85.0348C64.2093 70.7872 60.1441 58.3683 58.0448 53.9398C55.0335 47.8015 50.0989 33.881 54.4504 27.3052Z" fill="#E19D78"/>
<path d="M58.7124 46.3453C58.7887 48.8135 60.5677 58.4847 61.4477 63.0117L58.7124 56.2052C57.9597 52.7278 56.5114 44.3606 56.7405 38.7119C56.9695 33.0631 59.974 29.8062 61.4477 28.8838L62.6563 30.3469C59.0941 34.0046 58.617 43.2602 58.7124 46.3453Z" fill="#E29777"/>
<path d="M12.848 60.4988C14.2729 61.3385 15.9013 65.5772 16.5375 67.5915L18.9229 69.9134L19.4636 69.7862C18.0896 65.9185 14.4383 61.1667 12.848 60.4988Z" fill="#492723"/>
<path d="M62.2429 30.951C60.36 29.4243 62.6458 25.9893 64.0241 24.4626C64.8616 23.9325 66.6894 22.7959 67.3001 22.4906C68.0635 22.1089 73.5659 19.5644 80.8495 21.3456L80.3088 22.3316C80.2558 22.1937 79.8063 21.8418 78.4323 21.5364C76.7147 21.1547 76.174 21.8545 73.0252 21.9181C69.8764 21.9817 69.4629 23.3812 68.3815 23.7947C67.3001 24.2081 64.5966 32.8594 62.2429 30.951Z" fill="#D78B6B"/>
<path d="M89.4052 29.3607C81.4664 28.6482 79.1318 23.9961 79.0682 22.0135L80.6267 21.1547L82.1852 20.3914C82.1852 21.3455 83.5019 23.8709 87.4968 24.9396C91.4916 26.0083 94.632 24.2611 95.7028 23.2539C96.2117 23.4575 96.7418 24.2081 96.9432 24.558C95.8236 28.6037 91.4514 29.4455 89.4052 29.3607Z" fill="#5F5049"/>
</svg>
